# xmcd
#
# Track frame offsets:
#  150
#  18717
#  38190
#  58094
#  74524
#  96486
#  115987
#  135529
#  155327
#  177572
#
# Disc length: 2695 seconds
#
# Revision: 1
# Processed by: cddbd v1.5.1PL2 Copyright (c) Steve Scherf et al.
# Submitted via: Collectorz.com Music Collector 6.9
#
DISCID=930a850a
DTITLE=Umberto Tozzi - Het Beste Van Umberto Tozzi
DYEAR=2005
DGENRE=General Easy Listening
TTITLE0=Ti Amo
TTITLE1=Tu
TTITLE2=Gloria
TTITLE3=Gente Di Mare
TTITLE4=Io Camminero
TTITLE5=Stella Stai
TTITLE6=Qualcosa Qualcuno
TTITLE7=Notta Rosa
TTITLE8=Donna Amante Mia
TTITLE9=Gli Altri Siamo Noi
EXTD=
EXTT0=
EXTT1=
EXTT2=
EXTT3=
EXTT4=
EXTT5=
EXTT6=
EXTT7=
EXTT8=
EXTT9=
PLAYORDER=
